{
  "accessors": [
    {
      "bufferView": 2,
      "componentType": 5126,
      "count": 4491,
      "max": [
        180.3316192626953,
        203.97946166992188,
        148.29502868652344
      ],
      "min": [
        -179.3580322265625,
        -83.5062255859375,
        -60.197662353515625
      ],
      "type": "VEC3"
    },
    {
      "bufferView": 2,
      "byteOffset": 53892,
      "componentType": 5126,
      "count": 4491,
      "max": [
        0.9999955892562866,
        0.9999868273735046,
        0.9998661279678345
      ],
      "min": [
        -0.9999824166297913,
        -0.9995808005332947,
        -0.9997242093086243
      ],
      "type": "VEC3"
    },
    {
      "bufferView": 1,
      "componentType": 5126,
      "count": 4491,
      "max": [
        0.9988542795181274,
        0.9985653758049011
      ],
      "min": [
        0.0007776347338221967,
        -0.0003125537186861038
      ],
      "type": "VEC2"
    },
    {
      "bufferView": 0,
      "componentType": 5125,
      "count": 10326,
      "type": "SCALAR"
    }
  ],
  "asset": {
    "extras": {
      "author": "lukas.boonen1 (https://sketchfab.com/lukas.boonen1)",
      "license": "CC-BY-4.0 (http://creativecommons.org/licenses/by/4.0/)",
      "source": "https://sketchfab.com/3d-models/gothabomber-stylised-plane-e3af6da393914cac9e60187d15033950",
      "title": "Gothabomber Stylised Plane"
    },
    "generator": "Sketchfab-12.68.0",
    "version": "2.0"
  },
  "bufferViews": [
    {
      "buffer": 0,
      "byteLength": 41304,
      "name": "floatBufferViews",
      "target": 34963
    },
    {
      "buffer": 0,
      "byteLength": 35928,
      "byteOffset": 41304,
      "byteStride": 8,
      "name": "floatBufferViews",
      "target": 34962
    },
    {
      "buffer": 0,
      "byteLength": 107784,
      "byteOffset": 77232,
      "byteStride": 12,
      "name": "floatBufferViews",
      "target": 34962
    }
  ],
  "buffers": [
    {
      "byteLength": 185016,
      "uri": "scene.bin"
    }
  ],
  "images": [
    {
      "uri": "textures/Standardmaterial_baseColor.jpeg"
    }
  ],
  "materials": [
    {
      "doubleSided": true,
      "name": "Standardmaterial",
      "pbrMetallicRoughness": {
        "baseColorTexture": {
          "index": 0
        },
        "metallicFactor": 0.0,
        "roughnessFactor": 0.6
      }
    }
  ],
  "meshes": [
    {
      "name": "Airplane_Standardmaterial_0",
      "primitives": [
        {
          "attributes": {
            "NORMAL": 1,
            "POSITION": 0,
            "TEXCOORD_0": 2
          },
          "indices": 3,
          "material": 0,
          "mode": 4
        }
      ]
    }
  ],
  "nodes": [
    {
      "children": [
        1
      ],
      "matrix": [
        1.0,
        0.0,
        0.0,
        0.0,
        0.0,
        2.220446049250313e-16,
        -1.0,
        0.0,
        0.0,
        1.0,
        2.220446049250313e-16,
        0.0,
        0.0,
        0.0,
        0.0,
        1.0
      ],
      "name": "Sketchfab_model"
    },
    {
      "children": [
        2
      ],
      "matrix": [
        1.0,
        0.0,
        0.0,
        0.0,
        0.0,
        0.0,
        1.0,
        0.0,
        0.0,
        -1.0,
        0.0,
        0.0,
        0.0,
        0.0,
        0.0,
        1.0
      ],
      "name": "Gothabomber Stylised Plane.fbx"
    },
    {
      "children": [
        3
      ],
      "name": "RootNode"
    },
    {
      "children": [
        4
      ],
      "matrix": [
        0.9999710966091028,
        0.0073389350793443935,
        0.0019864486627003504,
        0.0,
        -0.00033053046420101996,
        0.30298623469180275,
        -0.9529948752941414,
        0.0,
        -0.007595834121451755,
        0.9529666739289392,
        0.3029799031038435,
        0.0,
        0.0,
        39.948646545410156,
        -1.50323486328125,
        1.0
      ],
      "name": "Airplane"
    },
    {
      "mesh": 0,
      "name": "Airplane_Standardmaterial_0"
    }
  ],
  "samplers": [
    {
      "magFilter": 9729,
      "minFilter": 9987,
      "wrapS": 10497,
      "wrapT": 10497
    }
  ],
  "scene": 0,
  "scenes": [
    {
      "name": "Sketchfab_Scene",
      "nodes": [
        0
      ]
    }
  ],
  "textures": [
    {
      "sampler": 0,
      "source": 0
    }
  ]
}
